<svg xmlns="http://www.w3.org/2000/svg" width="64" height="64" viewBox="0 0 64 64">
  <defs>
    <linearGradient id="healthcareGrad" x1="0%" y1="0%" x2="100%" y2="100%">
      <stop offset="0%" style="stop-color:#0d6efd;stop-opacity:1"/>
      <stop offset="100%" style="stop-color:#5a9bff;stop-opacity:1"/>
    </linearGradient>
  </defs>
  <circle cx="32" cy="32" r="28" fill="none" stroke="#0d6efd" stroke-width="2"/>
  <path d="M32 18v12m-6-6h12" stroke="url(#healthcareGrad)" stroke-width="3" stroke-linecap="round"/>
  <path d="M40 24a10 10 0 0 1 10 10v10a10 10 0 0 1-20 0V34a10 10 0 0 1 10-10z" fill="none" stroke="url(#healthcareGrad)" stroke-width="2"/>
  <path d="M28 38c-2 2-2 6 0 8s6 2 8 0 2-6 0-8-6-2-8 0z" fill="#0d6efd" opacity="0.2"/>
</svg>